name ./resultDataOpenSim/trcMotMarkerGrf/sub06/grf-05-03.mot
datacolumns 19
datarows 30
range 1.56000000 1.67600000
endheader

                time	     ground_force_vx	     ground_force_vy	     ground_force_vz	     ground_force_px	     ground_force_py	     ground_force_pz	   l_ground_force_vx	   l_ground_force_vy	   l_ground_force_vz	   l_ground_force_px	   l_ground_force_py	   l_ground_force_pz	     ground_torque_x	     ground_torque_y	     ground_torque_z	   l_ground_torque_x	   l_ground_torque_y	   l_ground_torque_z	
          1.56000000	         51.16946971	        447.06622251	        -22.85473225	          0.87433189	          0.00000000	          0.15829002	          0.00000000	          0.00000000	          0.00000000	          0.00000000	          0.00000000	          0.00000000	          0.00000000	          1.35358893	          0.00000000	          0.00000000	          0.00000000	          0.00000000	
          1.56400000	         53.35506808	        467.97964510	        -23.78756127	          0.87524132	          0.00000000	          0.15811218	          0.00000000	          0.00000000	          0.00000000	          0.00000000	          0.00000000	          0.00000000	          0.00000000	          1.43203602	          0.00000000	          0.00000000	          0.00000000	          0.00000000	
          1.56800000	         55.62793918	        489.51920916	        -24.76542400	          0.87610365	          0.00000000	          0.15786895	          0.00000000	          0.00000000	          0.00000000	          0.00000000	          0.00000000	          0.00000000	          0.00000000	          1.55546168	          0.00000000	          0.00000000	          0.00000000	          0.00000000	
          1.57200000	         58.21264453	        511.55159419	        -25.82276116	          0.87690649	          0.00000000	          0.15756684	          0.00000000	          0.00000000	          0.00000000	          0.00000000	          0.00000000	          0.00000000	          0.00000000	          1.71804598	          0.00000000	          0.00000000	          0.00000000	          0.00000000	
          1.57600000	         61.30190118	        533.89833952	        -26.93764493	          0.87763992	          0.00000000	          0.15721293	          0.00000000	          0.00000000	          0.00000000	          0.00000000	          0.00000000	          0.00000000	          0.00000000	          1.91132262	          0.00000000	          0.00000000	          0.00000000	          0.00000000	
          1.58000000	         65.03066064	        556.32282520	        -28.03282807	          0.87830013	          0.00000000	          0.15682288	          0.00000000	          0.00000000	          0.00000000	          0.00000000	          0.00000000	          0.00000000	          0.00000000	          2.12585033	          0.00000000	          0.00000000	          0.00000000	          0.00000000	
          1.58400000	         69.45937517	        578.55596400	        -28.98905700	          0.87886984	          0.00000000	          0.15641174	          0.00000000	          0.00000000	          0.00000000	          0.00000000	          0.00000000	          0.00000000	          0.00000000	          2.35268819	          0.00000000	          0.00000000	          0.00000000	          0.00000000	
          1.58800000	         74.57077743	        600.34887693	        -29.67233090	          0.87934032	          0.00000000	          0.15599195	          0.00000000	          0.00000000	          0.00000000	          0.00000000	          0.00000000	          0.00000000	          0.00000000	          2.58417163	          0.00000000	          0.00000000	          0.00000000	          0.00000000	
          1.59200000	         80.28458151	        621.52097420	        -29.96714670	          0.87972868	          0.00000000	          0.15557392	          0.00000000	          0.00000000	          0.00000000	          0.00000000	          0.00000000	          0.00000000	          0.00000000	          2.81390755	          0.00000000	          0.00000000	          0.00000000	          0.00000000	
          1.59600000	         86.48210684	        641.97230725	        -29.80593071	          0.88005267	          0.00000000	          0.15515957	          0.00000000	          0.00000000	          0.00000000	          0.00000000	          0.00000000	          0.00000000	          0.00000000	          3.03640620	          0.00000000	          0.00000000	          0.00000000	          0.00000000	
          1.60000000	         93.03311735	        661.66334405	        -29.18990432	          0.88033727	          0.00000000	          0.15475433	          0.00000000	          0.00000000	          0.00000000	          0.00000000	          0.00000000	          0.00000000	          0.00000000	          3.24696729	          0.00000000	          0.00000000	          0.00000000	          0.00000000	
          1.60400000	         99.81919838	        680.58929760	        -28.19703586	          0.88060068	          0.00000000	          0.15436241	          0.00000000	          0.00000000	          0.00000000	          0.00000000	          0.00000000	          0.00000000	          0.00000000	          3.44215632	          0.00000000	          0.00000000	          0.00000000	          0.00000000	
          1.60800000	        106.74353611	        698.75505704	        -26.97440806	          0.88084791	          0.00000000	          0.15399244	          0.00000000	          0.00000000	          0.00000000	          0.00000000	          0.00000000	          0.00000000	          0.00000000	          3.62065433	          0.00000000	          0.00000000	          0.00000000	          0.00000000	
          1.61200000	        113.73063768	        716.15453180	        -25.71678677	          0.88109344	          0.00000000	          0.15365755	          0.00000000	          0.00000000	          0.00000000	          0.00000000	          0.00000000	          0.00000000	          0.00000000	          3.78387347	          0.00000000	          0.00000000	          0.00000000	          0.00000000	
          1.61600000	        120.72286424	        732.75742069	        -24.63570560	          0.88135230	          0.00000000	          0.15335888	          0.00000000	          0.00000000	          0.00000000	          0.00000000	          0.00000000	          0.00000000	          0.00000000	          3.93579021	          0.00000000	          0.00000000	          0.00000000	          0.00000000	
          1.62000000	        127.67574989	        748.49200463	        -23.92510135	          0.88163638	          0.00000000	          0.15309344	          0.00000000	          0.00000000	          0.00000000	          0.00000000	          0.00000000	          0.00000000	          0.00000000	          4.08190069	          0.00000000	          0.00000000	          0.00000000	          0.00000000	
          1.62400000	        134.55432532	        763.23075430	        -23.72866277	          0.88195773	          0.00000000	          0.15285980	          0.00000000	          0.00000000	          0.00000000	          0.00000000	          0.00000000	          0.00000000	          0.00000000	          4.22768796	          0.00000000	          0.00000000	          0.00000000	          0.00000000	
          1.62800000	        141.32827885	        776.79877003	        -24.11463275	          0.88231548	          0.00000000	          0.15265860	          0.00000000	          0.00000000	          0.00000000	          0.00000000	          0.00000000	          0.00000000	          0.00000000	          4.37715037	          0.00000000	          0.00000000	          0.00000000	          0.00000000	
          1.63200000	        147.97002360	        788.99741614	        -25.06297327	          0.88269853	          0.00000000	          0.15248969	          0.00000000	          0.00000000	          0.00000000	          0.00000000	          0.00000000	          0.00000000	          0.00000000	          4.53173810	          0.00000000	          0.00000000	          0.00000000	          0.00000000	
          1.63600000	        154.46050627	        799.61256360	        -26.46442895	          0.88309713	          0.00000000	          0.15235037	          0.00000000	          0.00000000	          0.00000000	          0.00000000	          0.00000000	          0.00000000	          0.00000000	          4.68972012	          0.00000000	          0.00000000	          0.00000000	          0.00000000	
          1.64000000	        160.80362716	        808.41030582	        -28.13244391	          0.88350535	          0.00000000	          0.15224008	          0.00000000	          0.00000000	          0.00000000	          0.00000000	          0.00000000	          0.00000000	          0.00000000	          4.84582123	          0.00000000	          0.00000000	          0.00000000	          0.00000000	
          1.64400000	        167.05016297	        815.15655853	        -29.83251581	          0.88392514	          0.00000000	          0.15216054	          0.00000000	          0.00000000	          0.00000000	          0.00000000	          0.00000000	          0.00000000	          0.00000000	          4.99108991	          0.00000000	          0.00000000	          0.00000000	          0.00000000	
          1.64800000	        173.31198541	        819.65805374	        -31.33065764	          0.88435928	          0.00000000	          0.15210861	          0.00000000	          0.00000000	          0.00000000	          0.00000000	          0.00000000	          0.00000000	          0.00000000	          5.11333183	          0.00000000	          0.00000000	          0.00000000	          0.00000000	
          1.65200000	        179.73153771	        821.78739157	        -32.44894939	          0.88478990	          0.00000000	          0.15207335	          0.00000000	          0.00000000	          0.00000000	          0.00000000	          0.00000000	          0.00000000	          0.00000000	          5.19875319	          0.00000000	          0.00000000	          0.00000000	          0.00000000	
          1.65600000	        186.40528607	        821.48371278	        -33.09717301	          0.88519511	          0.00000000	          0.15204075	          0.00000000	          0.00000000	          0.00000000	          0.00000000	          0.00000000	          0.00000000	          0.00000000	          5.23518623	          0.00000000	          0.00000000	          0.00000000	          0.00000000	
          1.66000000	        193.31894907	        818.74840073	        -33.26651842	          0.88557578	          0.00000000	          0.15199718	          0.00000000	          0.00000000	          0.00000000	          0.00000000	          0.00000000	          0.00000000	          0.00000000	          5.21621582	          0.00000000	          0.00000000	          0.00000000	          0.00000000	
          1.66400000	        200.34436454	        813.63819707	        -33.01216844	          0.88594359	          0.00000000	          0.15192823	          0.00000000	          0.00000000	          0.00000000	          0.00000000	          0.00000000	          0.00000000	          0.00000000	          5.14444206	          0.00000000	          0.00000000	          0.00000000	          0.00000000	
          1.66800000	        207.27328706	        806.23920080	        -32.44220824	          0.88630550	          0.00000000	          0.15182439	          0.00000000	          0.00000000	          0.00000000	          0.00000000	          0.00000000	          0.00000000	          0.00000000	          5.03207033	          0.00000000	          0.00000000	          0.00000000	          0.00000000	
          1.67200000	        213.84686192	        796.63167417	        -31.69714029	          0.88667092	          0.00000000	          0.15168985	          0.00000000	          0.00000000	          0.00000000	          0.00000000	          0.00000000	          0.00000000	          0.00000000	          4.89810386	          0.00000000	          0.00000000	          0.00000000	          0.00000000	
          1.67600000	        219.78844220	        784.87435883	        -30.91775542	          0.88705853	          0.00000000	          0.15153425	          0.00000000	          0.00000000	          0.00000000	          0.00000000	          0.00000000	          0.00000000	          0.00000000	          4.76288520	          0.00000000	          0.00000000	          0.00000000	          0.00000000	
